<svg width="20" height="20" viewBox="0 0 20 20" fill="none" xmlns="http://www.w3.org/2000/svg">
<g clip-path="url(#clip0_12258_120)">
<g filter="url(#filter0_d_12258_120)">
<path fill-rule="evenodd" clip-rule="evenodd" d="M10 18C14.4183 18 18 14.4183 18 10C18 5.58172 14.4183 2 10 2C5.58172 2 2 5.58172 2 10C2 14.4183 5.58172 18 10 18ZM9.5547 7.16795C9.24784 6.96338 8.8533 6.94431 8.52814 7.11833C8.20298 7.29235 8 7.63121 8 8V12C8 12.3688 8.20298 12.7077 8.52814 12.8817C8.8533 13.0557 9.24784 13.0366 9.5547 12.8321L12.5547 10.8321C12.8329 10.6466 13 10.3344 13 10C13 9.66565 12.8329 9.35342 12.5547 9.16795L9.5547 7.16795Z" fill="#F7F8F6"/>
</g>
</g>
<defs>
<filter id="filter0_d_12258_120" x="0" y="0" width="20" height="20" filterUnits="userSpaceOnUse" color-interpolation-filters="sRGB">
<feFlood flood-opacity="0" result="BackgroundImageFix"/>
<feColorMatrix in="SourceAlpha" type="matrix" values="0 0 0 0 0 0 0 0 0 0 0 0 0 0 0 0 0 0 127 0" result="hardAlpha"/>
<feOffset/>
<feGaussianBlur stdDeviation="1"/>
<feComposite in2="hardAlpha" operator="out"/>
<feColorMatrix type="matrix" values="0 0 0 0 0 0 0 0 0 0 0 0 0 0 0 0 0 0 1 0"/>
<feBlend mode="normal" in2="BackgroundImageFix" result="effect1_dropShadow_12258_120"/>
<feBlend mode="normal" in="SourceGraphic" in2="effect1_dropShadow_12258_120" result="shape"/>
</filter>
<clipPath id="clip0_12258_120">
<rect width="20" height="20" fill="white"/>
</clipPath>
</defs>
</svg>
