<svg width="20" height="20" viewBox="0 0 20 20" fill="none" xmlns="http://www.w3.org/2000/svg">
<g clip-path="url(#clip0_12255_39683)">
<g filter="url(#filter0_d_12255_39683)">
<path fill-rule="evenodd" clip-rule="evenodd" d="M18 10C18 14.4183 14.4183 18 10 18C5.58172 18 2 14.4183 2 10C2 5.58172 5.58172 2 10 2C14.4183 2 18 5.58172 18 10ZM9.43789 6.04351C9.63572 6.13196 9.76471 6.34032 9.76471 6.57144V13.4286C9.76471 13.6597 9.63572 13.868 9.43789 13.9565C9.24006 14.0449 9.01235 13.996 8.86094 13.8326L6.89836 11.7143H5.52941C5.23703 11.7143 5 11.4584 5 11.1429V8.85715C5 8.54156 5.23703 8.28572 5.52941 8.28572H6.89836L8.86094 6.16738C9.01235 6.00396 9.24006 5.95507 9.43789 6.04351ZM11.1953 8.19526C11.4556 7.93491 11.8777 7.93491 12.1381 8.19526L13 9.05719L13.8619 8.19526C14.1223 7.93491 14.5444 7.93491 14.8047 8.19526C15.0651 8.45561 15.0651 8.87772 14.8047 9.13807L13.9428 10L14.8047 10.8619C15.0651 11.1223 15.0651 11.5444 14.8047 11.8047C14.5444 12.0651 14.1223 12.0651 13.8619 11.8047L13 10.9428L12.1381 11.8047C11.8777 12.0651 11.4556 12.0651 11.1953 11.8047C10.9349 11.5444 10.9349 11.1223 11.1953 10.8619L12.0572 10L11.1953 9.13807C10.9349 8.87772 10.9349 8.45561 11.1953 8.19526Z" fill="#F7F8F6"/>
</g>
</g>
<defs>
<filter id="filter0_d_12255_39683" x="0" y="0" width="20" height="20" filterUnits="userSpaceOnUse" color-interpolation-filters="sRGB">
<feFlood flood-opacity="0" result="BackgroundImageFix"/>
<feColorMatrix in="SourceAlpha" type="matrix" values="0 0 0 0 0 0 0 0 0 0 0 0 0 0 0 0 0 0 127 0" result="hardAlpha"/>
<feOffset/>
<feGaussianBlur stdDeviation="1"/>
<feComposite in2="hardAlpha" operator="out"/>
<feColorMatrix type="matrix" values="0 0 0 0 0 0 0 0 0 0 0 0 0 0 0 0 0 0 1 0"/>
<feBlend mode="normal" in2="BackgroundImageFix" result="effect1_dropShadow_12255_39683"/>
<feBlend mode="normal" in="SourceGraphic" in2="effect1_dropShadow_12255_39683" result="shape"/>
</filter>
<clipPath id="clip0_12255_39683">
<rect width="20" height="20" fill="white"/>
</clipPath>
</defs>
</svg>
