<svg width="20" height="20" viewBox="0 0 20 20" fill="none" xmlns="http://www.w3.org/2000/svg">
<g clip-path="url(#clip0_12263_119)">
<g filter="url(#filter0_d_12263_119)">
<path fill-rule="evenodd" clip-rule="evenodd" d="M18 10C18 14.4183 14.4183 18 10 18C5.58172 18 2 14.4183 2 10C2 5.58172 5.58172 2 10 2C14.4183 2 18 5.58172 18 10ZM9.43789 6.04351C9.63572 6.13196 9.76471 6.34032 9.76471 6.57144V13.4286C9.76471 13.6597 9.63572 13.868 9.43789 13.9565C9.24006 14.0449 9.01235 13.996 8.86094 13.8326L6.89836 11.7143H5.52941C5.23703 11.7143 5 11.4584 5 11.1429V8.85715C5 8.54156 5.23703 8.28572 5.52941 8.28572H6.89836L8.86094 6.16738C9.01235 6.00396 9.24006 5.95507 9.43789 6.04351ZM12.7167 6.16109C12.9315 5.9463 13.2798 5.9463 13.4945 6.16109C14.4892 7.15579 15.1055 8.53155 15.1055 10.0502C15.1055 11.5688 14.4892 12.9446 13.4945 13.9393C13.2798 14.1541 12.9315 14.1541 12.7167 13.9393C12.5019 13.7245 12.5019 13.3762 12.7167 13.1614C13.5136 12.3646 14.0055 11.2654 14.0055 10.0502C14.0055 8.835 13.5136 7.73575 12.7167 6.93891C12.5019 6.72412 12.5019 6.37588 12.7167 6.16109ZM11.1611 7.71673C11.3759 7.50194 11.7241 7.50194 11.9389 7.71673C12.2281 8.00596 12.4642 8.34899 12.6306 8.72997C12.8076 9.13496 12.9055 9.58186 12.9055 10.0502C12.9055 10.9613 12.5355 11.7871 11.9389 12.3836C11.7241 12.5984 11.3759 12.5984 11.1611 12.3836C10.9463 12.1688 10.9463 11.8206 11.1611 11.6058C11.5598 11.2071 11.8055 10.6578 11.8055 10.0502C11.8055 9.73628 11.74 9.4391 11.6226 9.17038C11.5119 8.91698 11.3546 8.68801 11.1611 8.49454C10.9463 8.27976 10.9463 7.93151 11.1611 7.71673Z" fill="#F7F8F6"/>
</g>
</g>
<defs>
<filter id="filter0_d_12263_119" x="0" y="0" width="20" height="20" filterUnits="userSpaceOnUse" color-interpolation-filters="sRGB">
<feFlood flood-opacity="0" result="BackgroundImageFix"/>
<feColorMatrix in="SourceAlpha" type="matrix" values="0 0 0 0 0 0 0 0 0 0 0 0 0 0 0 0 0 0 127 0" result="hardAlpha"/>
<feOffset/>
<feGaussianBlur stdDeviation="1"/>
<feComposite in2="hardAlpha" operator="out"/>
<feColorMatrix type="matrix" values="0 0 0 0 0 0 0 0 0 0 0 0 0 0 0 0 0 0 1 0"/>
<feBlend mode="normal" in2="BackgroundImageFix" result="effect1_dropShadow_12263_119"/>
<feBlend mode="normal" in="SourceGraphic" in2="effect1_dropShadow_12263_119" result="shape"/>
</filter>
<clipPath id="clip0_12263_119">
<rect width="20" height="20" fill="white"/>
</clipPath>
</defs>
</svg>
